{"glyphs":{":":{"x_min":0,"x_max":167,"ha":167,"o":"m 68 443 l 68 517 l 99 517 l 99 443 z m 68 0 l 68 74 l 99 74 l 99 0 z"},"$":{"x_min":0,"x_max":615,"ha":615,"o":"m 515 605 q 476 647 430 664 q 384 682 322 683 l 322 370 q 380 358 426 344 q 473 330 506 308 q 539 287 556 256 q 574 224 574 177 q 574 132 556 98 q 539 64 506 41 q 473 18 426 6 q 380 -5 323 -5 l 323 -96 l 298 -96 l 298 -4 q 221 -1 160 26 q 98 52 44 103 l 65 128 q 111 80 168 54 q 226 29 299 25 l 299 342 q 243 353 200 366 q 158 379 128 399 q 99 419 84 448 q 69 477 69 520 q 69 565 85 600 q 101 635 131 660 q 161 684 204 698 q 246 712 298 714 l 298 815 l 323 815 l 323 715 q 389 714 440 694 q 492 674 534 631 z m 539 173 q 539 210 526 236 q 513 261 486 280 q 459 299 418 312 q 377 325 322 337 l 322 25 q 424 25 482 62 q 539 98 539 173 z m 104 525 q 104 490 115 466 q 126 443 150 426 q 174 409 211 398 q 248 386 299 375 l 299 682 q 196 678 150 636 q 104 594 104 525 z"},"?":{"x_min":0,"x_max":470,"ha":470,"o":"m 171 186 q 171 229 177 259 q 183 289 194 310 q 206 331 222 344 q 237 357 257 368 q 279 380 304 392 q 330 404 352 422 q 373 440 387 466 q 401 493 401 534 q 401 574 388 603 q 374 632 352 651 q 330 670 302 679 q 273 688 243 688 q 185 688 136 658 q 86 627 61 576 l 35 590 q 49 621 72 645 q 94 669 122 686 q 149 702 180 710 q 211 719 243 719 q 279 719 314 707 q 348 695 374 672 q 400 648 416 613 q 432 578 432 531 q 432 487 418 458 q 404 430 382 410 q 361 390 334 376 q 307 362 281 348 q 264 339 250 328 q 236 317 225 300 q 214 282 208 255 q 202 228 202 186 z m 171 0 l 171 91 l 203 91 l 203 0 z"},"<":{"x_min":0,"x_max":504,"ha":504,"o":"m 34 270 l 451 520 l 451 483 l 83 259 l 451 34 l 451 -3 l 34 247 z"},"'":{"x_min":0,"x_max":175,"ha":175,"o":"m 72 555 l 72 712 l 103 712 l 103 555 z"},"=":{"x_min":0,"x_max":436,"ha":436,"o":"m 70 220 l 70 249 l 366 249 l 366 220 z m 70 303 l 70 332 l 366 332 l 366 303 z"},"a":{"x_min":0,"x_max":530,"ha":530,"o":"m 207 -10 q 171 -10 140 2 q 109 15 86 36 q 63 58 50 87 q 37 116 37 150 q 37 183 53 210 q 69 238 98 258 q 126 278 166 289 q 205 300 252 300 q 296 300 340 293 q 385 286 421 272 l 421 328 q 421 406 376 452 q 332 499 257 499 q 219 499 176 482 q 133 466 90 435 l 74 460 q 174 528 259 528 q 350 528 402 474 q 455 420 455 326 l 455 54 q 455 32 473 32 l 473 0 q 470 -1 468 -1 q 465 -1 463 -1 q 446 -1 434 12 q 423 24 423 42 l 423 88 q 387 41 330 16 q 273 -10 207 -10 z m 211 19 q 248 19 286 29 q 323 39 353 56 q 383 74 402 97 q 421 120 421 146 l 421 244 q 343 274 255 274 q 214 274 180 265 q 146 256 122 240 q 97 224 84 202 q 70 179 70 151 q 70 123 81 99 q 92 75 111 57 q 130 39 156 29 q 181 19 211 19 z"},"L":{"x_min":0,"x_max":580,"ha":580,"o":"m 96 0 l 96 710 l 131 710 l 131 32 l 566 32 l 566 0 z"},"3":{"x_min":0,"x_max":525,"ha":525,"o":"m 318 236 q 388 226 430 175 q 472 124 472 50 q 472 6 456 -30 q 440 -66 412 -92 q 383 -118 343 -132 q 303 -147 255 -147 q 180 -147 124 -114 q 67 -80 44 -23 l 71 -5 q 89 -55 138 -85 q 187 -115 256 -115 q 340 -115 389 -70 q 438 -25 438 52 q 438 130 388 176 q 338 221 249 221 l 226 221 l 226 252 l 250 252 q 335 252 380 289 q 425 326 425 390 q 425 425 412 454 q 399 482 376 502 q 354 522 323 533 q 292 544 255 544 q 194 544 147 514 q 100 485 80 436 l 55 453 q 76 509 132 542 q 187 576 257 576 q 301 576 338 562 q 375 549 402 525 q 429 501 444 468 q 460 435 460 396 q 460 333 422 288 q 384 244 318 236 z"},";":{"x_min":0,"x_max":179,"ha":179,"o":"m 72 443 l 72 517 l 103 517 l 103 443 z m 72 -81 l 84 -6 l 71 -6 l 71 74 l 108 74 l 108 -6 l 92 -81 z"},"J":{"x_min":0,"x_max":475,"ha":475,"o":"m 31 61 q 87 22 172 22 q 233 22 269 44 q 305 66 324 108 q 343 150 348 211 q 354 272 354 349 l 354 710 l 388 710 l 388 349 q 388 268 381 202 q 374 135 352 88 q 329 41 286 15 q 244 -11 172 -11 q 82 -11 18 33 z"},"V":{"x_min":0,"x_max":678,"ha":678,"o":"m 53 710 l 339 43 l 624 710 l 661 710 l 356 0 l 322 0 l 17 710 z"},"\"":{"x_min":0,"x_max":238,"ha":238,"o":"m 72 556 l 72 712 l 103 712 l 103 556 z m 135 556 l 135 712 l 166 712 l 166 556 z"},"7":{"x_min":0,"x_max":535,"ha":535,"o":"m 460 550 l 45 550 l 45 583 l 514 583 l 152 -127 l 113 -127 z"},"S":{"x_min":0,"x_max":603,"ha":603,"o":"m 508 605 q 469 648 422 666 q 375 683 312 683 q 199 683 148 640 q 97 597 97 525 q 97 489 110 464 q 122 440 148 423 q 174 406 215 394 q 256 383 313 371 q 371 359 418 345 q 465 331 498 310 q 531 288 549 256 q 567 224 567 177 q 567 132 550 98 q 532 64 499 41 q 466 18 420 6 q 373 -5 316 -5 q 231 -5 163 22 q 95 48 37 103 l 58 128 q 108 77 172 51 q 236 25 317 25 q 417 25 474 62 q 532 98 532 173 q 532 211 518 238 q 504 264 476 282 q 447 301 404 314 q 360 328 301 340 q 243 352 198 365 q 154 378 124 398 q 93 418 78 447 q 62 476 62 520 q 62 567 80 604 q 98 640 130 664 q 163 689 209 702 q 255 715 311 715 q 380 715 432 695 q 484 675 527 631 z"},"}":{"x_min":0,"x_max":238,"ha":238,"o":"m 54 709 l 54 740 l 118 740 q 123 740 132 735 q 141 730 141 710 l 141 423 q 141 419 142 411 q 143 403 147 396 q 151 388 157 382 q 163 376 174 376 l 174 346 q 156 344 148 329 q 141 314 141 297 l 141 -1 q 141 -18 134 -24 q 126 -31 118 -31 l 54 -31 l 54 0 l 109 0 l 109 302 q 109 309 112 328 q 116 346 132 360 q 124 367 120 376 q 115 384 112 392 q 110 401 110 408 q 109 414 109 418 l 109 709 z"},"Z":{"x_min":0,"x_max":625,"ha":625,"o":"m 29 30 l 554 678 l 35 678 l 35 710 l 595 710 l 595 680 l 72 32 l 592 32 l 592 0 l 29 0 z"},"x":{"x_min":0,"x_max":488,"ha":488,"o":"m 58 520 l 236 294 l 244 281 l 252 294 l 430 520 l 470 520 l 264 258 l 468 0 l 429 0 l 252 224 l 244 236 l 236 224 l 60 0 l 20 0 l 224 258 l 19 520 z"},")":{"x_min":0,"x_max":243,"ha":243,"o":"m 196 345 q 196 253 160 160 q 125 66 61 -29 l 35 -13 q 96 77 130 171 q 164 265 164 342 q 164 388 152 440 q 141 491 122 540 q 104 590 80 635 q 57 680 34 714 l 61 730 q 89 683 114 636 q 138 589 156 542 q 175 494 186 445 q 196 396 196 345 z"},"&":{"x_min":0,"x_max":644,"ha":644,"o":"m 590 0 l 491 103 q 452 52 396 21 q 340 -10 271 -10 q 229 -10 189 2 q 149 15 118 38 q 88 62 70 96 q 51 130 51 174 q 51 211 64 241 q 78 271 100 297 q 123 323 153 346 q 183 369 216 392 q 186 424 165 449 q 144 474 131 495 q 118 516 112 534 q 107 553 107 571 q 107 601 120 628 q 133 654 156 674 q 179 695 210 707 q 241 719 277 719 q 310 719 338 709 q 367 699 388 681 q 408 663 420 639 q 431 615 431 588 q 431 557 417 530 q 403 504 380 480 q 356 456 326 433 q 295 410 262 388 l 489 151 q 513 193 526 241 q 539 289 539 340 l 570 340 q 570 283 554 229 q 539 175 510 129 l 635 0 z m 275 19 q 337 19 386 48 q 436 76 471 124 l 236 371 q 205 350 178 328 q 150 307 130 283 q 109 259 97 232 q 85 204 85 172 q 85 133 102 104 q 119 76 146 57 q 174 38 208 28 q 242 19 275 19 z m 140 571 q 140 558 144 544 q 148 529 159 510 q 170 491 190 466 q 209 442 241 409 q 277 433 306 454 q 335 476 356 497 q 377 518 388 540 q 399 561 399 586 q 399 631 364 660 q 330 689 277 689 q 248 689 223 680 q 198 670 180 654 q 161 638 150 616 q 140 595 140 571 z"},"_":{"x_min":0,"x_max":525,"ha":525,"o":"m 68 -32 l 68 0 l 457 0 l 457 -32 z"},"v":{"x_min":0,"x_max":524,"ha":524,"o":"m 245 0 l 23 520 l 59 520 l 262 39 l 466 520 l 501 520 l 279 0 z"},"O":{"x_min":0,"x_max":755,"ha":755,"o":"m 378 -5 q 304 -5 243 26 q 182 57 138 107 q 94 157 70 222 q 46 287 46 355 q 46 426 72 491 q 97 556 142 606 q 186 656 246 686 q 307 715 378 715 q 452 715 513 684 q 574 652 618 601 q 661 550 685 486 q 709 421 709 355 q 709 283 684 218 q 658 153 614 104 q 569 54 508 24 q 448 -5 378 -5 z m 81 355 q 81 291 103 232 q 125 173 164 128 q 204 82 258 55 q 313 28 378 28 q 445 28 500 56 q 554 85 593 131 q 632 177 653 236 q 674 295 674 355 q 674 419 652 478 q 629 537 590 582 q 550 628 496 655 q 441 682 378 682 q 311 682 256 654 q 202 625 163 579 q 124 533 102 474 q 81 416 81 355 z"},"(":{"x_min":0,"x_max":244,"ha":244,"o":"m 48 345 q 48 396 58 445 q 69 494 88 542 q 106 589 130 636 q 155 683 183 730 l 210 714 q 187 680 164 635 q 141 590 122 540 q 103 491 92 440 q 80 388 80 342 q 80 265 114 171 q 148 77 209 -13 l 183 -29 q 119 66 84 160 q 48 253 48 345 z"},"C":{"x_min":0,"x_max":694,"ha":694,"o":"m 46 360 q 46 424 68 487 q 91 550 134 600 q 177 651 240 682 q 302 714 382 714 q 477 714 544 670 q 610 627 642 559 l 612 545 q 592 583 566 609 q 539 635 508 651 q 477 667 444 674 q 411 681 378 681 q 307 681 252 652 q 196 624 158 578 q 120 532 100 474 q 81 416 81 357 q 81 292 104 232 q 127 172 168 126 q 208 81 263 54 q 318 27 381 27 q 415 27 450 36 q 485 44 518 62 q 551 79 579 106 q 607 133 627 171 l 658 159 q 640 119 609 88 q 578 57 540 36 q 502 15 460 4 q 417 -6 377 -6 q 304 -6 244 26 q 183 58 139 110 q 95 161 70 226 q 46 292 46 360 z"},"W":{"x_min":0,"x_max":1040,"ha":1040,"o":"m 374 704 l 409 704 l 519 442 l 631 704 l 666 704 l 540 411 l 700 41 l 986 710 l 1024 710 l 717 0 l 683 0 l 520 378 l 357 0 l 323 0 l 17 710 l 54 710 l 341 41 l 500 411 z"},"A":{"x_min":0,"x_max":675,"ha":675,"o":"m 322 710 l 352 710 l 657 0 l 620 0 l 515 245 l 159 245 l 54 0 l 16 0 z m 504 275 l 337 666 l 169 275 z"},"f":{"x_min":0,"x_max":308,"ha":308,"o":"m 102 0 l 102 490 l 28 490 l 28 520 l 102 520 l 102 539 q 102 634 140 687 q 177 740 244 740 q 273 740 300 730 q 327 721 343 706 l 326 684 q 313 695 292 702 q 271 709 248 709 q 194 709 165 666 q 136 622 136 539 l 136 520 l 288 520 l 288 490 l 136 490 l 136 0 z"},"Q":{"x_min":0,"x_max":755,"ha":755,"o":"m 581 72 q 539 36 488 16 q 436 -5 378 -5 q 304 -5 243 26 q 182 57 138 107 q 94 157 70 222 q 46 287 46 355 q 46 426 72 491 q 97 556 142 606 q 186 656 246 686 q 307 715 378 715 q 452 715 513 684 q 574 652 618 601 q 661 550 685 486 q 709 421 709 355 q 709 279 680 211 q 652 143 603 92 l 678 0 l 640 0 z m 378 28 q 432 28 478 47 q 524 66 560 98 l 482 195 l 519 195 l 581 118 q 626 166 650 228 q 674 290 674 355 q 674 419 652 478 q 629 537 590 582 q 550 628 496 655 q 441 682 378 682 q 311 682 256 654 q 202 625 163 579 q 124 533 102 474 q 81 416 81 355 q 81 291 103 232 q 125 173 164 128 q 204 82 258 55 q 313 28 378 28 z"},"w":{"x_min":0,"x_max":800,"ha":800,"o":"m 742 520 l 777 520 l 551 0 l 522 0 l 400 284 l 277 0 l 248 0 l 22 520 l 57 520 l 264 41 l 381 314 l 294 519 l 325 519 l 400 344 l 474 519 l 506 519 l 418 314 l 536 41 z"},"-":{"x_min":0,"x_max":421,"ha":421,"o":"m 68 255 l 68 288 l 353 288 l 353 255 z"},"E":{"x_min":0,"x_max":615,"ha":615,"o":"m 565 32 l 565 0 l 96 0 l 96 710 l 556 710 l 556 678 l 131 678 l 131 379 l 503 379 l 503 347 l 131 347 l 131 32 z"},"s":{"x_min":0,"x_max":476,"ha":476,"o":"m 239 -10 q 179 -10 127 10 q 75 30 35 72 l 54 95 q 96 57 140 38 q 184 19 238 19 q 311 19 356 50 q 401 81 401 137 q 401 163 390 180 q 378 198 356 210 q 334 223 302 232 q 269 242 227 252 q 184 262 152 272 q 121 281 100 294 q 79 307 69 327 q 59 347 59 378 q 59 417 74 445 q 89 473 114 492 q 140 510 174 519 q 207 528 245 528 q 308 528 354 507 q 399 486 420 454 l 397 437 q 375 467 332 483 q 290 499 242 499 q 211 499 184 492 q 157 486 136 472 q 116 457 104 435 q 92 413 92 383 q 92 359 100 343 q 108 327 126 316 q 143 306 170 298 q 196 291 234 282 q 282 271 319 260 q 356 249 382 234 q 408 219 422 197 q 435 175 435 141 q 435 106 421 78 q 407 51 382 31 q 356 11 320 0 q 283 -10 239 -10 z"},">":{"x_min":0,"x_max":504,"ha":504,"o":"m 470 247 l 52 -3 l 52 34 l 420 259 l 52 483 l 52 520 l 470 270 z"},"l":{"x_min":0,"x_max":248,"ha":248,"o":"m 87 730 l 120 730 l 120 89 q 120 60 138 43 q 156 26 185 26 q 196 26 212 28 q 227 31 240 36 l 248 8 q 233 3 210 -1 q 188 -5 172 -5 q 134 -5 110 18 q 87 42 87 82 z"},"8":{"x_min":0,"x_max":584,"ha":584,"o":"m 532 191 q 532 146 512 109 q 493 72 460 46 q 426 21 382 7 q 338 -7 289 -7 q 235 -7 192 10 q 148 26 117 54 q 86 81 69 117 q 52 153 52 193 q 52 229 66 260 q 79 291 102 315 q 124 339 152 356 q 181 372 210 381 q 183 391 159 406 q 135 420 117 440 q 99 460 88 484 q 78 509 78 538 q 78 580 97 612 q 116 644 146 666 q 177 687 216 698 q 254 710 293 710 q 332 710 370 698 q 409 687 439 666 q 469 644 488 612 q 507 580 507 538 q 507 509 496 484 q 485 460 467 440 q 449 421 425 406 q 401 391 374 381 q 407 371 436 353 q 465 335 486 310 q 507 286 520 256 q 532 226 532 191 z m 498 194 q 498 235 479 267 q 460 299 430 320 q 400 342 364 354 q 327 365 291 365 q 254 365 218 352 q 181 340 152 318 q 123 295 105 263 q 87 231 87 192 q 87 152 106 120 q 125 89 154 68 q 184 46 221 34 q 258 23 294 23 q 331 23 368 35 q 404 47 433 69 q 462 91 480 123 q 498 155 498 194 z m 112 535 q 112 501 128 475 q 145 449 171 431 q 197 413 229 404 q 261 395 292 395 q 323 395 355 404 q 387 414 414 432 q 440 450 456 476 q 473 503 473 537 q 473 571 458 597 q 442 623 416 641 q 391 659 358 668 q 325 678 291 678 q 256 678 224 668 q 192 659 167 640 q 142 622 127 596 q 112 569 112 535 z"},"\\":{"x_min":0,"x_max":530,"ha":530,"o":"m 68 710 l 503 0 l 463 0 l 27 710 z"},"e":{"x_min":0,"x_max":579,"ha":579,"o":"m 297 -10 q 244 -10 198 12 q 152 33 118 70 q 83 108 64 158 q 44 207 44 263 q 44 318 63 366 q 82 414 116 450 q 150 486 195 507 q 240 528 293 528 q 347 528 393 507 q 439 486 473 450 q 507 413 526 364 q 546 315 546 260 q 546 258 546 252 q 546 246 545 245 l 79 245 q 83 197 102 156 q 120 114 150 84 q 179 54 218 36 q 256 19 299 19 q 327 19 354 26 q 382 34 406 48 q 430 62 448 82 q 466 101 477 124 l 508 116 q 497 89 476 66 q 455 42 426 26 q 398 9 365 0 q 332 -10 297 -10 z m 512 274 q 509 323 491 364 q 473 405 444 435 q 414 465 376 482 q 338 498 294 498 q 250 498 212 481 q 174 464 146 434 q 117 404 100 363 q 82 322 79 274 z"},"b":{"x_min":0,"x_max":607,"ha":607,"o":"m 314 -10 q 252 -10 198 23 q 144 56 113 106 l 113 0 l 81 0 l 81 730 l 115 730 l 115 402 q 153 458 204 493 q 256 528 323 528 q 380 528 424 504 q 469 480 500 442 q 530 404 546 356 q 563 307 563 258 q 563 205 544 156 q 525 108 491 71 q 457 34 412 12 q 366 -10 314 -10 z m 309 22 q 357 22 398 42 q 438 63 467 96 q 496 129 512 172 q 529 214 529 258 q 529 304 514 347 q 498 390 470 423 q 443 456 404 476 q 365 496 318 496 q 283 496 252 484 q 221 472 196 452 q 170 432 150 406 q 129 380 115 351 l 115 170 q 118 140 138 113 q 157 86 186 66 q 214 45 247 34 q 280 22 309 22 z"},"%":{"x_min":0,"x_max":683,"ha":683,"o":"m 187 441 q 158 441 132 452 q 106 463 87 482 q 68 500 57 526 q 46 551 46 580 q 46 609 57 634 q 68 660 87 679 q 106 698 132 709 q 158 720 187 720 q 216 720 242 709 q 268 698 287 679 q 306 660 317 634 q 328 609 328 580 q 328 551 317 526 q 306 500 287 482 q 268 463 242 452 q 216 441 187 441 z m 187 466 q 211 466 232 476 q 252 485 267 500 q 282 516 290 536 q 299 557 299 580 q 299 604 290 625 q 281 646 266 661 q 250 676 230 685 q 209 694 187 694 q 163 694 142 684 q 122 675 107 660 q 92 644 84 623 q 75 602 75 580 q 75 556 84 536 q 93 515 108 500 q 123 484 144 475 q 164 466 187 466 z m 497 -10 q 468 -10 442 1 q 416 12 396 31 q 377 50 366 76 q 355 101 355 130 q 355 159 366 184 q 377 210 396 228 q 416 247 442 258 q 468 269 497 269 q 526 269 552 258 q 578 247 597 228 q 616 210 627 184 q 638 159 638 130 q 638 101 627 76 q 616 50 597 31 q 578 12 552 1 q 526 -10 497 -10 z m 497 16 q 520 16 540 25 q 561 34 576 50 q 591 66 600 86 q 609 107 609 130 q 609 153 600 174 q 591 195 576 210 q 560 226 540 235 q 519 244 497 244 q 473 244 452 234 q 432 225 417 210 q 402 194 393 173 q 384 152 384 130 q 384 106 393 85 q 402 64 418 49 q 433 34 454 25 q 474 16 497 16 z m 53 16 l 332 363 l 609 712 l 631 695 l 350 346 l 74 -2 z"},"m":{"x_min":0,"x_max":911,"ha":911,"o":"m 836 0 l 802 0 l 802 290 q 802 396 770 446 q 737 496 670 496 q 635 496 604 483 q 573 470 548 448 q 523 425 504 393 q 485 361 475 324 l 475 0 l 441 0 l 441 290 q 441 397 410 446 q 378 496 310 496 q 241 496 189 449 q 137 402 115 325 l 115 0 l 81 0 l 81 520 l 114 520 l 114 390 q 147 456 199 492 q 251 528 314 528 q 380 528 422 488 q 463 448 471 382 q 548 528 677 528 q 760 528 798 468 q 836 409 836 294 z"},"#":{"x_min":0,"x_max":659,"ha":659,"o":"m 621 474 l 500 474 l 445 247 l 580 247 l 580 217 l 437 217 l 385 0 l 354 0 l 407 217 l 181 217 l 129 0 l 98 0 l 151 217 l 38 217 l 38 247 l 158 247 l 213 474 l 79 474 l 79 503 l 220 503 l 271 710 l 302 710 l 251 503 l 476 503 l 527 710 l 558 710 l 507 503 l 621 503 z m 414 247 l 469 474 l 244 474 l 189 247 z"},",":{"x_min":0,"x_max":250,"ha":250,"o":"m 107 -81 l 119 -6 l 106 -6 l 106 74 l 144 74 l 144 -6 l 127 -81 z"},"n":{"x_min":0,"x_max":570,"ha":570,"o":"m 495 0 l 461 0 l 461 290 q 461 397 430 446 q 400 496 334 496 q 299 496 264 483 q 229 470 200 447 q 170 424 148 393 q 125 362 115 325 l 115 0 l 81 0 l 81 520 l 114 520 l 114 390 q 130 421 154 446 q 178 472 208 490 q 238 508 272 518 q 305 528 340 528 q 422 528 458 470 q 495 411 495 294 z"},"h":{"x_min":0,"x_max":570,"ha":570,"o":"m 495 0 l 461 0 l 461 290 q 461 496 324 496 q 289 496 256 483 q 223 470 195 447 q 167 424 146 392 q 125 361 115 325 l 115 0 l 81 0 l 81 730 l 115 730 l 115 390 q 131 421 154 446 q 178 472 206 490 q 234 508 266 518 q 297 528 330 528 q 414 528 454 467 q 495 406 495 294 z"},"z":{"x_min":0,"x_max":489,"ha":489,"o":"m 32 28 l 416 491 l 38 491 l 38 520 l 455 520 l 455 492 l 73 29 l 452 29 l 452 0 l 32 0 z"},"B":{"x_min":0,"x_max":658,"ha":658,"o":"m 610 184 q 610 146 596 112 q 581 79 556 54 q 531 29 498 14 q 464 0 427 0 l 96 0 l 96 710 l 418 710 q 455 710 485 694 q 515 678 536 652 q 557 627 568 594 q 580 562 580 529 q 580 475 553 430 q 526 385 478 364 q 508 355 532 338 q 557 320 574 296 q 592 272 601 244 q 610 215 610 184 z m 576 187 q 576 217 565 246 q 554 274 535 296 q 516 317 490 330 q 464 343 434 343 l 131 343 l 131 32 l 427 32 q 458 32 485 45 q 512 58 532 80 q 553 102 564 130 q 576 158 576 187 z m 131 678 l 131 374 l 406 374 q 437 374 462 387 q 488 400 506 422 q 525 443 536 470 q 546 497 546 526 q 546 556 536 584 q 526 611 508 632 q 491 653 466 666 q 442 678 412 678 z"},"K":{"x_min":0,"x_max":627,"ha":627,"o":"m 96 0 l 96 710 l 131 710 l 131 263 l 565 710 l 608 710 l 309 399 l 622 0 l 581 0 l 285 378 l 131 220 l 131 0 z"},"R":{"x_min":0,"x_max":645,"ha":645,"o":"m 96 0 l 96 710 l 388 710 q 432 710 470 691 q 507 672 534 642 q 561 611 576 572 q 591 533 591 493 q 591 452 578 415 q 566 378 543 349 q 520 320 488 301 q 456 282 417 278 l 595 0 l 555 0 l 379 274 l 131 274 l 131 0 z m 131 306 l 394 306 q 431 306 462 322 q 492 338 513 364 q 534 390 546 424 q 557 458 557 493 q 557 529 544 562 q 530 596 507 622 q 484 647 453 662 q 422 678 387 678 l 131 678 z"},"T":{"x_min":0,"x_max":603,"ha":603,"o":"m 585 678 l 319 678 l 319 0 l 284 0 l 284 678 l 18 678 l 18 710 l 585 710 z"},"P":{"x_min":0,"x_max":620,"ha":620,"o":"m 96 0 l 96 710 l 387 710 q 431 710 468 691 q 505 672 532 642 q 559 611 574 572 q 590 533 590 493 q 590 451 576 412 q 561 372 535 342 q 509 311 473 292 q 437 274 393 274 l 131 274 l 131 0 z m 131 306 l 392 306 q 430 306 460 322 q 490 338 511 364 q 532 391 544 424 q 555 458 555 493 q 555 529 542 562 q 528 596 505 622 q 482 647 452 662 q 421 678 386 678 l 131 678 z"},"|":{"x_min":0,"x_max":216,"ha":216,"o":"m 92 -130 l 92 775 l 124 775 l 124 -130 z"},"t":{"x_min":0,"x_max":307,"ha":307,"o":"m 297 24 q 295 23 287 18 q 279 14 266 8 q 252 3 234 -1 q 217 -5 196 -5 q 157 -5 128 18 q 100 40 100 81 l 100 490 l 26 490 l 26 520 l 100 520 l 100 699 l 134 699 l 134 520 l 257 520 l 257 490 l 134 490 l 134 86 q 136 57 156 42 q 176 27 202 27 q 218 27 232 30 q 247 34 258 38 q 269 43 276 47 q 283 51 284 52 z"},"M":{"x_min":0,"x_max":882,"ha":882,"o":"m 751 0 l 751 642 l 453 138 l 429 138 l 131 642 l 131 0 l 96 0 l 96 710 l 128 710 l 441 181 l 754 710 l 786 710 l 786 0 z"},"g":{"x_min":0,"x_max":607,"ha":607,"o":"m 293 -9 q 239 -9 193 14 q 147 37 114 74 q 81 112 62 160 q 44 208 44 258 q 44 311 62 360 q 79 408 111 446 q 143 483 188 506 q 232 528 286 528 q 320 528 350 518 q 380 508 406 491 q 432 474 454 451 q 476 428 494 402 l 494 520 l 526 520 l 526 -16 q 526 -69 506 -108 q 487 -146 454 -172 q 422 -198 379 -210 q 336 -223 289 -223 q 243 -223 208 -214 q 172 -205 145 -189 q 118 -173 98 -150 q 77 -128 62 -101 l 87 -87 q 119 -143 173 -168 q 227 -193 289 -193 q 331 -193 368 -182 q 404 -171 432 -148 q 460 -126 476 -93 q 492 -60 492 -16 l 492 106 q 476 80 454 59 q 431 38 405 23 q 379 8 350 0 q 322 -9 293 -9 z m 298 22 q 333 22 366 36 q 400 49 427 70 q 454 92 472 118 q 489 145 492 172 l 492 351 q 480 382 458 409 q 437 436 410 455 q 383 474 352 485 q 321 496 289 496 q 239 496 200 475 q 161 454 134 420 q 107 386 93 344 q 79 301 79 258 q 79 211 96 168 q 113 126 142 94 q 172 61 212 42 q 252 22 298 22 z"},"j":{"x_min":0,"x_max":204,"ha":204,"o":"m -16 -173 q -46 -173 -73 -166 q -100 -158 -120 -138 l -99 -116 q -82 -131 -60 -136 q -39 -141 -19 -141 q 1 -141 20 -132 q 40 -124 55 -110 q 70 -95 80 -76 q 89 -56 89 -33 l 89 520 l 123 520 l 123 -32 q 123 -63 110 -89 q 98 -115 78 -134 q 59 -152 34 -162 q 9 -173 -16 -173 z m 89 646 l 89 730 l 123 730 l 123 646 z"},"i":{"x_min":0,"x_max":197,"ha":197,"o":"m 81 0 l 81 520 l 115 520 l 115 0 z m 81 646 l 81 730 l 115 730 l 115 646 z"},"y":{"x_min":0,"x_max":538,"ha":538,"o":"m 121 -190 q 155 -190 168 -183 q 173 -180 178 -172 q 184 -165 193 -146 q 202 -126 217 -92 q 232 -57 256 0 l 19 520 l 55 520 l 274 36 l 480 520 l 514 520 l 217 -176 q 203 -210 162 -219 q 152 -221 142 -222 q 132 -222 121 -222 z"},"@":{"x_min":0,"x_max":832,"ha":832,"o":"m 414 603 q 488 603 553 574 q 618 545 667 494 q 716 442 744 372 q 772 303 772 222 q 772 208 770 184 q 769 161 764 134 q 759 108 750 81 q 741 54 726 32 q 710 11 686 -2 q 663 -16 631 -16 q 607 -16 592 -8 q 578 -1 570 12 q 562 26 558 44 q 555 62 553 82 q 527 53 482 32 q 438 10 386 10 q 318 10 278 46 q 238 83 238 140 q 238 176 254 200 q 271 225 297 240 q 323 255 356 261 q 388 267 421 267 q 466 267 502 258 q 537 250 554 244 q 554 284 548 317 q 542 350 528 374 q 513 398 488 411 q 463 424 424 424 q 386 424 350 412 q 313 399 281 376 l 268 399 q 303 422 342 436 q 382 451 427 451 q 478 451 508 433 q 539 415 554 386 q 570 358 575 322 q 580 286 580 249 l 580 103 q 580 58 590 34 q 599 9 633 9 q 667 9 689 31 q 711 53 724 86 q 737 118 742 156 q 748 193 748 223 q 748 297 722 362 q 696 427 650 475 q 605 523 544 551 q 483 579 414 579 q 347 579 286 553 q 224 527 177 480 q 130 434 102 370 q 74 306 74 230 q 74 156 100 92 q 127 28 172 -20 q 218 -67 280 -94 q 341 -122 412 -122 q 491 -122 564 -84 l 575 -106 q 496 -146 411 -146 q 337 -146 271 -117 q 205 -88 156 -38 q 106 13 78 82 q 49 150 49 230 q 49 312 80 381 q 110 450 160 499 q 211 548 277 576 q 343 603 414 603 z m 482 59 q 506 70 520 84 q 534 98 542 113 q 549 128 551 143 q 553 158 553 173 l 553 218 q 547 218 535 222 q 523 226 506 230 q 488 235 466 238 q 443 242 416 242 q 388 242 361 237 q 334 232 313 220 q 292 208 279 188 q 266 169 266 140 q 266 116 276 96 q 285 77 302 64 q 318 51 340 44 q 362 37 386 37 q 412 37 438 44 q 463 50 482 59 z"},".":{"x_min":0,"x_max":167,"ha":167,"o":"m 68 0 l 68 74 l 99 74 l 99 0 z"},"p":{"x_min":0,"x_max":607,"ha":607,"o":"m 323 -10 q 289 -10 258 0 q 228 10 202 27 q 175 44 153 67 q 131 90 115 116 l 115 -213 l 81 -213 l 81 520 l 113 520 l 113 412 q 129 437 152 458 q 174 480 200 496 q 227 511 256 520 q 284 528 314 528 q 368 528 414 505 q 460 482 493 444 q 526 406 544 358 q 563 309 563 259 q 563 205 546 156 q 528 107 496 70 q 465 34 421 12 q 377 -10 323 -10 z m 318 22 q 366 22 405 42 q 444 63 472 96 q 499 130 514 172 q 529 215 529 259 q 529 305 512 348 q 495 391 465 424 q 435 457 395 476 q 355 496 309 496 q 280 496 248 484 q 215 471 186 450 q 158 430 138 403 q 118 376 115 346 l 115 167 q 128 137 150 110 q 171 84 197 64 q 223 45 254 34 q 285 22 318 22 z"},"X":{"x_min":0,"x_max":624,"ha":624,"o":"m 51 710 l 313 376 l 575 710 l 615 710 l 332 350 l 607 0 l 567 0 l 313 324 l 59 0 l 17 0 l 292 350 l 9 710 z"},"*":{"x_min":0,"x_max":308,"ha":308,"o":"m 92 559 l 134 617 l 66 639 l 74 663 l 141 640 l 141 711 l 166 711 l 166 640 l 234 663 l 241 639 l 174 617 l 217 559 l 195 544 l 154 603 l 112 544 z"},"Y":{"x_min":0,"x_max":644,"ha":644,"o":"m 60 710 l 321 307 l 585 710 l 623 710 l 339 272 l 339 0 l 304 0 l 304 274 l 21 710 z"},"c":{"x_min":0,"x_max":541,"ha":541,"o":"m 44 262 q 44 318 63 366 q 82 415 116 451 q 150 487 196 508 q 243 528 297 528 q 365 528 418 496 q 471 465 497 410 l 464 398 q 439 444 394 470 q 349 496 294 496 q 249 496 210 478 q 170 460 140 428 q 111 397 94 354 q 78 311 78 262 q 78 213 96 170 q 113 126 142 93 q 172 60 212 41 q 251 22 295 22 q 324 22 352 30 q 381 39 405 53 q 429 67 446 86 q 464 104 470 125 l 504 115 q 495 88 474 65 q 454 42 426 26 q 399 9 366 0 q 333 -10 298 -10 q 245 -10 199 12 q 153 33 118 70 q 84 107 64 156 q 44 206 44 262 z"},"!":{"x_min":0,"x_max":235,"ha":235,"o":"m 101 208 l 101 717 l 134 717 l 134 208 z m 101 0 l 101 92 l 134 92 l 134 0 z"},"/":{"x_min":0,"x_max":556,"ha":556,"o":"m 528 710 l 67 0 l 27 0 l 487 710 z"},"[":{"x_min":0,"x_max":237,"ha":237,"o":"m 94 -40 l 94 740 l 179 740 l 179 709 l 127 709 l 127 -9 l 179 -9 l 179 -40 z"},"6":{"x_min":0,"x_max":597,"ha":597,"o":"m 554 233 q 554 182 535 138 q 516 94 482 61 q 449 28 404 9 q 358 -10 306 -10 q 252 -10 206 10 q 161 29 127 66 q 93 102 74 154 q 55 206 55 272 q 55 386 74 470 q 92 553 126 608 q 160 662 206 688 q 253 715 310 715 q 382 715 438 676 q 494 638 517 572 l 491 556 q 471 613 422 648 q 373 683 310 683 q 260 683 220 658 q 179 634 150 588 q 122 541 106 474 q 90 406 90 319 q 101 354 123 382 q 145 411 174 432 q 203 452 238 464 q 273 475 311 475 q 362 475 406 456 q 450 437 483 404 q 516 371 535 327 q 554 283 554 233 z m 308 22 q 352 22 390 38 q 429 55 458 84 q 487 112 504 150 q 521 189 521 232 q 521 275 504 314 q 487 353 458 382 q 428 410 389 427 q 350 444 307 444 q 263 444 224 427 q 186 410 157 382 q 128 353 111 314 q 94 276 94 233 q 94 190 111 152 q 128 113 158 84 q 187 56 226 39 q 264 22 308 22 z"},"r":{"x_min":0,"x_max":331,"ha":331,"o":"m 314 488 q 242 485 189 442 q 136 400 115 327 l 115 0 l 81 0 l 81 520 l 114 520 l 114 388 q 141 443 186 478 q 231 513 282 519 q 292 520 300 520 q 309 520 314 520 z"},"2":{"x_min":0,"x_max":496,"ha":496,"o":"m 46 0 q 46 23 50 57 q 55 91 72 128 q 90 166 124 202 q 157 237 216 263 q 244 275 276 288 q 309 302 336 321 q 364 340 382 366 q 401 391 401 428 q 401 450 392 472 q 382 493 363 510 q 344 527 316 538 q 287 549 248 549 q 212 549 183 538 q 154 527 133 512 q 112 498 98 484 q 85 469 80 463 l 56 486 q 57 488 72 503 q 86 518 111 536 q 136 553 172 567 q 207 581 251 581 q 296 581 331 568 q 366 555 389 534 q 412 513 424 486 q 436 458 436 430 q 436 387 416 356 q 396 325 366 303 q 337 281 304 266 q 270 252 243 241 q 195 221 164 192 q 134 164 116 134 q 98 103 91 76 q 84 48 83 32 l 447 32 l 447 0 z"},"{":{"x_min":0,"x_max":238,"ha":238,"o":"m 128 709 l 128 418 q 128 414 128 408 q 127 401 125 392 q 123 384 118 376 q 114 367 106 360 q 122 346 125 328 q 128 309 128 302 l 128 0 l 183 0 l 183 -31 l 119 -31 q 111 -31 104 -24 q 96 -18 96 -1 l 96 297 q 96 314 89 329 q 82 344 64 346 l 64 376 q 74 376 80 382 q 87 388 90 396 q 94 403 95 411 q 96 419 96 423 l 96 710 q 96 730 106 735 q 115 740 119 740 l 183 740 l 183 709 z"},"9":{"x_min":0,"x_max":581,"ha":581,"o":"m 37 328 q 37 379 56 423 q 75 467 108 500 q 142 533 187 552 q 232 571 284 571 q 338 571 384 552 q 430 532 464 496 q 498 459 517 407 q 536 355 536 289 q 536 175 517 92 q 498 8 464 -46 q 431 -101 384 -128 q 337 -154 281 -154 q 209 -154 153 -116 q 97 -77 73 -11 l 100 5 q 119 -52 168 -87 q 218 -122 280 -122 q 329 -122 370 -98 q 411 -73 440 -26 q 469 20 485 88 q 501 155 501 242 q 490 207 468 178 q 446 150 417 130 q 388 109 352 98 q 317 86 279 86 q 229 86 185 105 q 141 124 108 157 q 75 190 56 234 q 37 278 37 328 z m 283 539 q 239 539 200 522 q 162 506 133 478 q 104 449 87 410 q 70 372 70 329 q 70 285 87 246 q 104 208 134 180 q 163 151 202 134 q 240 117 283 117 q 327 117 366 134 q 405 151 434 180 q 463 208 480 246 q 497 285 497 328 q 497 371 480 410 q 463 448 434 476 q 404 505 365 522 q 326 539 283 539 z"}," ":{"x_min":0,"x_max":259,"ha":259,"o":""},"I":{"x_min":0,"x_max":227,"ha":227,"o":"m 96 0 l 96 710 l 131 710 l 131 0 z"},"H":{"x_min":0,"x_max":733,"ha":733,"o":"m 637 710 l 637 0 l 603 0 l 603 347 l 131 347 l 131 0 l 96 0 l 96 710 l 131 710 l 131 379 l 603 379 l 603 710 z"},"4":{"x_min":0,"x_max":526,"ha":526,"o":"m 376 -127 l 376 66 l 20 66 l 20 95 l 387 571 l 410 571 l 410 98 l 498 98 l 498 66 l 410 66 l 410 -127 z m 61 98 l 378 98 l 378 514 z"},"~":{"x_min":0,"x_max":476,"ha":476,"o":"m 69 248 q 69 251 74 264 q 79 278 90 294 q 101 310 118 322 q 135 335 160 335 q 181 335 200 326 q 219 316 237 305 q 255 294 274 284 q 292 275 312 275 q 330 275 344 282 q 357 290 366 300 q 374 310 378 318 q 382 327 382 329 l 408 328 q 408 327 404 314 q 399 302 388 287 q 376 272 358 260 q 339 248 312 248 q 288 248 268 258 q 247 267 228 278 q 210 289 193 298 q 176 308 160 308 q 144 308 132 299 q 120 290 112 279 q 104 268 100 258 q 96 249 96 248 l 69 248 z"},"D":{"x_min":0,"x_max":712,"ha":712,"o":"m 96 0 l 96 710 l 328 710 q 412 710 475 682 q 538 654 580 606 q 621 558 642 494 q 663 429 663 356 q 663 275 640 210 q 616 144 572 98 q 529 51 467 26 q 405 0 328 0 z m 628 356 q 628 426 608 485 q 589 544 550 587 q 512 630 456 654 q 400 678 328 678 l 131 678 l 131 32 l 328 32 q 402 32 458 56 q 514 81 552 124 q 590 168 609 228 q 628 287 628 356 z"},"^":{"x_min":0,"x_max":515,"ha":515,"o":"m 45 303 l 243 710 l 273 710 l 470 303 l 436 303 l 258 671 l 77 303 z"},"0":{"x_min":0,"x_max":609,"ha":609,"o":"m 551 293 q 551 227 532 172 q 514 116 481 76 q 448 35 403 12 q 358 -10 305 -10 q 251 -10 206 12 q 161 35 128 76 q 95 116 76 172 q 58 227 58 293 q 58 359 76 414 q 95 470 128 510 q 161 551 206 574 q 251 597 305 597 q 358 597 403 574 q 448 551 481 510 q 514 470 532 414 q 551 359 551 293 z m 517 293 q 517 353 502 403 q 486 453 458 489 q 430 525 391 544 q 352 564 305 564 q 258 564 218 544 q 179 525 151 489 q 123 453 108 403 q 92 353 92 293 q 92 233 108 183 q 123 133 151 98 q 179 62 218 42 q 258 23 305 23 q 352 23 391 42 q 430 62 458 98 q 486 133 502 183 q 517 233 517 293 z"},"F":{"x_min":0,"x_max":598,"ha":598,"o":"m 96 0 l 96 710 l 556 710 l 556 678 l 131 678 l 131 378 l 492 378 l 492 347 l 131 347 l 131 0 z"},"`":{"x_min":0,"x_max":205,"ha":205,"o":"m 50 730 l 94 730 l 157 651 l 133 638 z"},"k":{"x_min":0,"x_max":514,"ha":514,"o":"m 460 0 l 248 288 l 115 167 l 115 0 l 81 0 l 81 730 l 115 730 l 115 207 l 452 518 l 493 518 l 272 310 l 499 0 z"},"u":{"x_min":0,"x_max":581,"ha":581,"o":"m 242 -10 q 160 -10 118 49 q 76 108 76 224 l 76 520 l 110 520 l 110 228 q 110 22 249 22 q 284 22 318 34 q 352 47 380 69 q 409 91 430 122 q 452 153 464 190 l 464 520 l 498 520 l 498 54 q 498 32 516 32 l 516 0 q 512 -1 506 -1 q 490 -1 478 12 q 466 24 466 42 l 466 128 q 432 64 372 27 q 312 -10 242 -10 z"},"]":{"x_min":0,"x_max":237,"ha":237,"o":"m 58 -40 l 58 -9 l 110 -9 l 110 709 l 58 709 l 58 740 l 142 740 l 142 -40 z"},"U":{"x_min":0,"x_max":756,"ha":756,"o":"m 378 28 q 454 28 504 56 q 555 85 584 131 q 613 177 625 236 q 637 294 637 354 l 637 710 l 671 710 l 671 354 q 671 283 656 218 q 641 153 606 104 q 572 54 516 24 q 461 -5 379 -5 q 295 -5 238 26 q 182 57 148 108 q 114 158 100 222 q 85 287 85 354 l 85 710 l 120 710 l 120 354 q 120 292 132 234 q 144 175 174 130 q 204 84 254 56 q 303 28 378 28 z"},"o":{"x_min":0,"x_max":589,"ha":589,"o":"m 294 -10 q 241 -10 196 12 q 150 33 116 70 q 82 106 63 155 q 44 204 44 258 q 44 313 64 362 q 83 411 117 448 q 151 485 196 506 q 242 528 294 528 q 346 528 392 506 q 438 485 472 448 q 506 411 526 362 q 545 313 545 258 q 545 204 526 155 q 506 106 472 70 q 439 33 393 12 q 347 -10 294 -10 z m 78 257 q 78 209 95 166 q 112 123 141 91 q 170 59 210 40 q 249 22 293 22 q 338 22 378 41 q 417 60 446 92 q 476 124 493 168 q 510 211 510 259 q 510 307 493 350 q 476 394 446 426 q 417 458 378 477 q 338 496 294 496 q 250 496 211 477 q 172 458 142 426 q 113 393 96 350 q 78 306 78 257 z"},"N":{"x_min":0,"x_max":775,"ha":775,"o":"m 131 644 l 131 0 l 96 0 l 96 710 l 122 710 l 644 55 l 644 710 l 679 710 l 679 0 l 645 0 z"},"+":{"x_min":0,"x_max":413,"ha":413,"o":"m 358 370 l 358 340 l 223 340 l 223 194 l 190 194 l 190 340 l 55 340 l 55 370 l 190 370 l 190 516 l 223 516 l 223 370 z"},"G":{"x_min":0,"x_max":719,"ha":719,"o":"m 628 116 q 520 -5 380 -5 q 307 -5 246 26 q 184 58 140 109 q 96 160 71 224 q 46 289 46 355 q 46 425 70 490 q 94 555 138 605 q 181 655 240 685 q 300 715 371 715 q 425 715 468 704 q 511 692 544 672 q 577 651 601 622 q 625 594 642 560 l 613 545 q 574 618 512 650 q 450 682 370 682 q 303 682 250 654 q 196 625 158 579 q 121 533 101 474 q 81 416 81 355 q 81 290 104 231 q 128 172 168 127 q 209 82 264 55 q 319 28 382 28 q 449 28 510 59 q 570 90 628 157 l 628 311 l 464 311 l 464 341 l 660 341 l 660 0 l 628 0 z"},"q":{"x_min":0,"x_max":607,"ha":607,"o":"m 284 -10 q 230 -10 186 13 q 141 36 110 74 q 78 111 61 160 q 44 208 44 259 q 44 312 64 361 q 83 410 117 447 q 151 484 196 506 q 242 528 294 528 q 324 528 354 519 q 383 510 409 494 q 435 479 457 458 q 479 436 494 412 l 494 520 l 526 520 l 526 -158 q 526 -180 544 -181 l 544 -212 q 541 -213 535 -213 q 517 -213 504 -200 q 492 -186 492 -167 l 492 116 q 450 54 397 22 q 344 -10 284 -10 z m 290 22 q 325 22 356 34 q 386 45 412 64 q 437 84 457 110 q 477 136 492 164 l 492 344 q 488 374 469 402 q 450 429 422 450 q 395 471 362 484 q 329 496 297 496 q 249 496 209 476 q 169 455 140 422 q 111 388 95 345 q 79 302 79 258 q 79 211 94 168 q 110 126 138 94 q 166 61 205 42 q 244 22 290 22 z"},"d":{"x_min":0,"x_max":609,"ha":609,"o":"m 294 -10 q 240 -10 194 13 q 148 36 114 74 q 81 111 62 159 q 44 207 44 258 q 44 312 62 361 q 80 410 112 447 q 144 484 188 506 q 232 528 284 528 q 319 528 350 518 q 381 508 408 490 q 434 473 456 450 q 477 427 492 402 l 492 730 l 526 730 l 526 54 q 526 32 544 32 l 544 0 q 541 -1 536 -1 q 518 -1 506 12 q 494 26 494 43 l 494 106 q 478 80 456 58 q 433 37 407 22 q 381 7 352 -2 q 323 -10 294 -10 z m 298 22 q 327 22 360 34 q 393 46 422 66 q 450 87 470 114 q 489 142 492 172 l 492 351 q 481 381 460 408 q 438 434 410 454 q 382 473 350 484 q 319 496 289 496 q 241 496 202 476 q 163 455 136 422 q 109 388 94 346 q 79 303 79 258 q 79 211 96 168 q 113 126 142 94 q 172 61 212 42 q 252 22 298 22 z"},"1":{"x_min":0,"x_max":390,"ha":390,"o":"m 371 32 l 371 0 l 68 0 l 68 32 l 210 32 l 210 524 q 202 512 182 498 q 163 483 140 470 q 116 458 90 449 q 65 440 45 440 l 45 476 q 71 476 100 490 q 128 504 152 521 q 176 538 192 554 q 209 569 210 571 l 244 571 l 244 32 z"},"5":{"x_min":0,"x_max":539,"ha":539,"o":"m 271 308 q 319 308 360 292 q 402 275 434 245 q 465 215 483 174 q 501 132 501 83 q 501 31 482 -12 q 463 -55 430 -86 q 397 -116 354 -132 q 311 -149 263 -149 q 225 -149 191 -138 q 157 -128 128 -110 q 98 -91 76 -64 q 53 -38 38 -6 l 67 4 q 94 -50 146 -84 q 198 -117 263 -117 q 305 -117 342 -102 q 380 -88 408 -62 q 435 -35 451 2 q 467 39 467 83 q 467 125 452 160 q 436 196 409 222 q 382 247 346 262 q 310 276 268 276 q 214 276 166 252 q 118 228 87 183 l 51 183 q 53 191 57 212 q 61 233 67 262 q 73 290 80 324 q 87 358 94 393 q 110 473 130 571 l 468 571 l 468 538 l 157 538 l 96 234 q 129 269 174 288 q 220 308 271 308 z"}}}
